<svg xmlns="http://www.w3.org/2000/svg" width="900" viewBox="0 0 680 540">
<defs>
<marker id="arrow" viewBox="0 0 10 10" refX="8" refY="5" markerWidth="6" markerHeight="6" orient="auto-start-reverse">
<path d="M2 1L8 5L2 9" fill="none" stroke="#333" stroke-width="1.5" stroke-linecap="round" stroke-linejoin="round"/>
</marker>
</defs>
<rect width="680" height="540" fill="white"/>

<!-- Frontend -->
<rect x="240" y="20" width="200" height="44" rx="4" fill="white" stroke="#222" stroke-width="1.5"/>
<text font-family="Arial" font-size="13" font-weight="600" x="340" y="47" text-anchor="middle">React Frontend (SPA)</text>

<line x1="340" y1="64" x2="340" y2="98" stroke="#333" stroke-width="1" marker-end="url(#arrow)"/>
<text font-family="Arial" font-size="11" x="356" y="86" fill="#555">REST / JWT</text>

<!-- API Gateway -->
<rect x="190" y="100" width="300" height="56" rx="4" fill="white" stroke="#222" stroke-width="1.5"/>
<text font-family="Arial" font-size="13" font-weight="600" x="340" y="122" text-anchor="middle">API Gateway  :8080</text>
<text font-family="Arial" font-size="11" x="340" y="142" text-anchor="middle" fill="#555">JWT validate · routing · rate limit</text>

<!-- Keycloak -->
<rect x="514" y="108" width="130" height="40" rx="4" fill="white" stroke="#888" stroke-width="1" stroke-dasharray="4 3"/>
<text font-family="Arial" font-size="11" x="579" y="132" text-anchor="middle" fill="#333">Keycloak :8180</text>
<line x1="490" y1="124" x2="514" y2="124" stroke="#888" stroke-width="0.8" stroke-dasharray="3 3" marker-end="url(#arrow)"/>

<line x1="340" y1="156" x2="340" y2="190" stroke="#333" stroke-width="1" marker-end="url(#arrow)"/>

<!-- Services -->
<rect x="20" y="192" width="108" height="52" rx="4" fill="white" stroke="#333" stroke-width="1"/>
<text font-family="Arial" font-size="11" font-weight="600" x="74" y="213" text-anchor="middle">user-service</text>
<text font-family="Arial" font-size="10" x="74" y="231" text-anchor="middle" fill="#666">:8081</text>

<rect x="148" y="192" width="108" height="52" rx="4" fill="white" stroke="#333" stroke-width="1"/>
<text font-family="Arial" font-size="11" font-weight="600" x="202" y="213" text-anchor="middle">product-service</text>
<text font-family="Arial" font-size="10" x="202" y="231" text-anchor="middle" fill="#666">:8082</text>

<rect x="276" y="192" width="120" height="52" rx="4" fill="white" stroke="#222" stroke-width="1.5"/>
<text font-family="Arial" font-size="11" font-weight="600" x="336" y="213" text-anchor="middle">contract-service</text>
<text font-family="Arial" font-size="10" x="336" y="231" text-anchor="middle" fill="#666">:8083 · core</text>

<rect x="416" y="192" width="108" height="52" rx="4" fill="white" stroke="#222" stroke-width="1.5"/>
<text font-family="Arial" font-size="11" font-weight="600" x="470" y="213" text-anchor="middle">escrow-service</text>
<text font-family="Arial" font-size="10" x="470" y="231" text-anchor="middle" fill="#666">:8084 · core</text>

<rect x="544" y="192" width="116" height="52" rx="4" fill="white" stroke="#333" stroke-width="1"/>
<text font-family="Arial" font-size="11" font-weight="600" x="602" y="213" text-anchor="middle">notification-svc</text>
<text font-family="Arial" font-size="10" x="602" y="231" text-anchor="middle" fill="#666">:8085</text>

<!-- Fan lines -->
<line x1="340" y1="190" x2="74" y2="192" stroke="#999" stroke-width="0.5"/>
<line x1="340" y1="190" x2="202" y2="192" stroke="#999" stroke-width="0.5"/>
<line x1="340" y1="190" x2="336" y2="192" stroke="#999" stroke-width="0.5"/>
<line x1="340" y1="190" x2="470" y2="192" stroke="#999" stroke-width="0.5"/>
<line x1="340" y1="190" x2="602" y2="192" stroke="#999" stroke-width="0.5"/>

<!-- Feign -->
<path d="M276 210 L256 210" stroke="#333" stroke-width="0.8" fill="none" marker-end="url(#arrow)"/>
<text font-family="Arial" font-size="10" x="266" y="205" text-anchor="middle" fill="#555">Feign</text>

<!-- RabbitMQ -->
<rect x="190" y="306" width="300" height="44" rx="4" fill="white" stroke="#222" stroke-width="1.5"/>
<text font-family="Arial" font-size="13" font-weight="600" x="340" y="322" text-anchor="middle">RabbitMQ Broker  :5672</text>
<text font-family="Arial" font-size="11" x="340" y="340" text-anchor="middle" fill="#555">Topic Exchange · Choreography Saga</text>

<line x1="336" y1="244" x2="336" y2="306" stroke="#333" stroke-width="1" marker-end="url(#arrow)"/>
<path d="M470 244 L470 280 L492 280 L492 306" stroke="#888" stroke-width="0.8" fill="none" marker-end="url(#arrow)"/>
<path d="M602 244 L602 280 L492 280" stroke="#888" stroke-width="0.8" fill="none"/>

<!-- DB label -->
<text font-family="Arial" font-size="11" x="40" y="386" fill="#666">Databases — database-per-service (no cross-DB join)</text>

<!-- DBs -->
<rect x="20" y="398" width="100" height="40" rx="4" fill="white" stroke="#aaa" stroke-width="0.8"/>
<text font-family="Arial" font-size="11" x="70" y="422" text-anchor="middle" fill="#333">user_db</text>

<rect x="138" y="398" width="100" height="40" rx="4" fill="white" stroke="#aaa" stroke-width="0.8"/>
<text font-family="Arial" font-size="11" x="188" y="422" text-anchor="middle" fill="#333">product_db</text>

<rect x="256" y="398" width="116" height="40" rx="4" fill="white" stroke="#aaa" stroke-width="0.8"/>
<text font-family="Arial" font-size="11" x="314" y="422" text-anchor="middle" fill="#333">contract_db</text>

<rect x="390" y="398" width="100" height="40" rx="4" fill="white" stroke="#aaa" stroke-width="0.8"/>
<text font-family="Arial" font-size="11" x="440" y="422" text-anchor="middle" fill="#333">escrow_db</text>

<rect x="508" y="398" width="120" height="40" rx="4" fill="white" stroke="#aaa" stroke-width="0.8"/>
<text font-family="Arial" font-size="11" x="568" y="422" text-anchor="middle" fill="#333">notification_db</text>

<!-- DB arrows -->
<line x1="74" y1="244" x2="70" y2="398" stroke="#bbb" stroke-width="0.5" stroke-dasharray="3 3" marker-end="url(#arrow)"/>
<line x1="202" y1="244" x2="188" y2="398" stroke="#bbb" stroke-width="0.5" stroke-dasharray="3 3" marker-end="url(#arrow)"/>
<line x1="340" y1="350" x2="314" y2="398" stroke="#bbb" stroke-width="0.5" stroke-dasharray="3 3" marker-end="url(#arrow)"/>
<line x1="470" y1="244" x2="440" y2="398" stroke="#bbb" stroke-width="0.5" stroke-dasharray="3 3" marker-end="url(#arrow)"/>
<line x1="602" y1="244" x2="568" y2="398" stroke="#bbb" stroke-width="0.5" stroke-dasharray="3 3" marker-end="url(#arrow)"/>

<!-- Docker net -->
<rect x="20" y="456" width="640" height="26" rx="4" fill="white" stroke="#bbb" stroke-width="0.5" stroke-dasharray="4 3"/>
<text font-family="Arial" font-size="10" x="340" y="473" text-anchor="middle" fill="#888">Docker bridge network: agricontract-net — services communicate by container name</text>

<!-- Legend -->
<line x1="40" y1="500" x2="80" y2="500" stroke="#333" stroke-width="1.5"/>
<text font-family="Arial" font-size="10" x="86" y="504" fill="#666">sync REST (Feign)</text>
<line x1="200" y1="500" x2="240" y2="500" stroke="#333" stroke-width="1" stroke-dasharray="4 2"/>
<text font-family="Arial" font-size="10" x="246" y="504" fill="#666">async event (RabbitMQ)</text>
<rect x="420" y="490" width="56" height="18" rx="2" fill="white" stroke="#222" stroke-width="1.5"/>
<text font-family="Arial" font-size="10" x="448" y="503" text-anchor="middle" fill="#333">core svc</text>
</svg>