<svg viewBox="0 0 1440 905" xmlns="http://www.w3.org/2000/svg" font-family="'Segoe UI', system-ui, -apple-system, 'Helvetica Neue', Arial, sans-serif">
  <defs>
    <marker id="arrowGray" markerWidth="10" markerHeight="8" refX="8" refY="3" orient="auto" markerUnits="userSpaceOnUse"><path d="M0,0 L8,3 L0,6 Z" fill="#64748B"/></marker>
    <marker id="arrowGrayS" markerWidth="10" markerHeight="8" refX="0" refY="3" orient="auto" markerUnits="userSpaceOnUse"><path d="M8,0 L0,3 L8,6 Z" fill="#64748B"/></marker>
    <marker id="arrowRose" markerWidth="11" markerHeight="9" refX="8" refY="3" orient="auto" markerUnits="userSpaceOnUse"><path d="M0,0 L8,3 L0,6 Z" fill="#E11D48"/></marker>
    <marker id="arrowCyan" markerWidth="10" markerHeight="8" refX="8" refY="3" orient="auto" markerUnits="userSpaceOnUse"><path d="M0,0 L8,3 L0,6 Z" fill="#0891B2"/></marker>
    <marker id="arrowCyanS" markerWidth="10" markerHeight="8" refX="0" refY="3" orient="auto" markerUnits="userSpaceOnUse"><path d="M8,0 L0,3 L8,6 Z" fill="#0891B2"/></marker>
    <marker id="arrowAmber" markerWidth="10" markerHeight="8" refX="8" refY="3" orient="auto" markerUnits="userSpaceOnUse"><path d="M0,0 L8,3 L0,6 Z" fill="#D97706"/></marker>
    <filter id="soft" x="-20%" y="-20%" width="140%" height="140%"><feDropShadow dx="0" dy="1.5" stdDeviation="2.2" flood-color="#0F172A" flood-opacity="0.12"/></filter>
  </defs>

  <rect x="0" y="0" width="1440" height="905" fill="#FFFFFF"/>

  <text x="44" y="48" font-size="25" font-weight="700" fill="#1E293B">AgriContract — Phase 2 Architecture</text>
  <text x="44" y="73" font-size="12.5" fill="#64748B">12 microservices · event-driven (Choreography Saga + Transactional Outbox) · external verification &amp; anchoring integrations</text>

  <g filter="url(#soft)"><rect x="610" y="96" width="220" height="44" rx="8" fill="#EEF2FF" stroke="#4F46E5" stroke-width="1.6"/></g>
  <text x="720" y="117" text-anchor="middle" font-size="13" font-weight="700" fill="#3730A3">Web Client</text>
  <text x="720" y="132" text-anchor="middle" font-size="9.5" fill="#6366F1">React SPA</text>

  <g filter="url(#soft)"><rect x="590" y="186" width="260" height="50" rx="8" fill="#4F46E5" stroke="#4338CA" stroke-width="1.6"/></g>
  <text x="720" y="209" text-anchor="middle" font-size="13.5" font-weight="700" fill="#FFFFFF">API Gateway  ·  :8080</text>
  <text x="720" y="225" text-anchor="middle" font-size="9.5" fill="#C7D2FE">JWT validation · routing · X-Internal-Secret</text>

  <g filter="url(#soft)"><rect x="900" y="186" width="175" height="50" rx="8" fill="#FEE2E2" stroke="#DC2626" stroke-width="1.6"/></g>
  <text x="987" y="208" text-anchor="middle" font-size="12" font-weight="700" fill="#991B1B">Keycloak  ·  :8180</text>
  <text x="987" y="224" text-anchor="middle" font-size="9.5" fill="#B91C1C">RBAC · RS256 JWT</text>

  <line x1="720" y1="140" x2="720" y2="184" stroke="#64748B" stroke-width="1.4" marker-end="url(#arrowGray)"/>
  <line x1="852" y1="211" x2="898" y2="211" stroke="#64748B" stroke-width="1.4" marker-start="url(#arrowGrayS)" marker-end="url(#arrowGray)"/>
  <text x="875" y="204" text-anchor="middle" font-size="8.5" fill="#64748B">verify</text>

  <g stroke="#64748B" stroke-width="1.1" opacity="0.85" fill="none">
    <line x1="720" y1="236" x2="300" y2="290" marker-end="url(#arrowGray)"/>
    <line x1="720" y1="236" x2="510" y2="290" marker-end="url(#arrowGray)"/>
    <line x1="720" y1="236" x2="720" y2="290" marker-end="url(#arrowGray)"/>
    <line x1="720" y1="236" x2="930" y2="290" marker-end="url(#arrowGray)"/>
    <line x1="720" y1="236" x2="1140" y2="290" marker-end="url(#arrowGray)"/>
  </g>

  <g filter="url(#soft)">
    <rect x="210" y="292" width="180" height="76" rx="8" fill="#CCFBF1" stroke="#0D9488" stroke-width="1.6"/>
    <rect x="420" y="292" width="180" height="76" rx="8" fill="#CCFBF1" stroke="#0D9488" stroke-width="1.6"/>
    <rect x="630" y="292" width="180" height="76" rx="8" fill="#CCFBF1" stroke="#0D9488" stroke-width="1.6"/>
    <rect x="840" y="292" width="180" height="76" rx="8" fill="#CCFBF1" stroke="#0D9488" stroke-width="1.6"/>
    <rect x="1050" y="292" width="180" height="76" rx="8" fill="#CCFBF1" stroke="#0D9488" stroke-width="1.6"/>
  </g>
  <g text-anchor="middle" fill="#0F766E">
    <text x="300" y="320" font-size="13" font-weight="700">user-service</text><text x="300" y="338" font-size="10" fill="#14B8A6">:8081</text><text x="300" y="354" font-size="9.5" fill="#115E59">profiles · KYC</text>
    <text x="510" y="320" font-size="13" font-weight="700">contract-service</text><text x="510" y="338" font-size="10" fill="#14B8A6">:8083</text><text x="510" y="354" font-size="9.5" fill="#115E59">state machine · Outbox</text>
    <text x="720" y="320" font-size="13" font-weight="700">product-service</text><text x="720" y="338" font-size="10" fill="#14B8A6">:8082</text><text x="720" y="354" font-size="9.5" fill="#115E59">listings · +EUDR geo (P2)</text>
    <text x="930" y="320" font-size="13" font-weight="700">escrow-service</text><text x="930" y="338" font-size="10" fill="#14B8A6">:8084</text><text x="930" y="354" font-size="9.5" fill="#115E59">lock / release / penalty</text>
    <text x="1140" y="320" font-size="13" font-weight="700">notification-service</text><text x="1140" y="338" font-size="10" fill="#14B8A6">:8085</text><text x="1140" y="354" font-size="9.5" fill="#115E59">email · OTP · hash anchor</text>
  </g>

  <rect x="1250" y="300" width="146" height="60" rx="8" fill="#ECFEFF" stroke="#0891B2" stroke-width="1.4" stroke-dasharray="5,3"/>
  <text x="1323" y="323" text-anchor="middle" font-size="11.5" font-weight="700" fill="#0E7490">SendGrid</text>
  <text x="1323" y="339" text-anchor="middle" font-size="8.5" fill="#0891B2">outbound email · OTP</text>
  <text x="1323" y="351" text-anchor="middle" font-size="8.5" fill="#0891B2">hash-anchor mail</text>
  <line x1="1230" y1="330" x2="1248" y2="330" stroke="#0891B2" stroke-width="1.3" marker-end="url(#arrowCyan)"/>

  <g stroke="#EA580C" stroke-width="1.4" stroke-dasharray="4,3" opacity="0.8">
    <line x1="300" y1="368" x2="300" y2="420"/><line x1="510" y1="368" x2="510" y2="420"/><line x1="720" y1="368" x2="720" y2="420"/><line x1="930" y1="368" x2="930" y2="420"/><line x1="1140" y1="368" x2="1140" y2="420"/>
  </g>

  <g filter="url(#soft)"><rect x="44" y="420" width="1352" height="46" rx="10" fill="#FFEDD5" stroke="#EA580C" stroke-width="1.8"/></g>
  <text x="720" y="441" text-anchor="middle" font-size="14" font-weight="700" fill="#9A3412">RabbitMQ  —  Event Bus</text>
  <text x="720" y="458" text-anchor="middle" font-size="9.5" fill="#B45309">Choreography Saga + Transactional Outbox · at-least-once delivery (idempotent consumers)</text>

  <g stroke="#EA580C" stroke-width="1.4" stroke-dasharray="4,3" opacity="0.8">
    <line x1="118" y1="466" x2="118" y2="526"/><line x1="319" y1="466" x2="319" y2="526"/><line x1="519" y1="466" x2="519" y2="526"/><line x1="720" y1="466" x2="720" y2="526"/><line x1="921" y1="466" x2="921" y2="526"/><line x1="1121" y1="466" x2="1121" y2="526"/><line x1="1322" y1="466" x2="1322" y2="526"/>
  </g>

  <g filter="url(#soft)">
    <rect x="44" y="526" width="148" height="76" rx="8" fill="#F5F3FF" stroke="#7C3AED" stroke-width="1.5" stroke-dasharray="5,3"/>
    <rect x="245" y="526" width="148" height="76" rx="8" fill="#F5F3FF" stroke="#7C3AED" stroke-width="1.5" stroke-dasharray="5,3"/>
    <rect x="445" y="526" width="148" height="76" rx="8" fill="#F5F3FF" stroke="#7C3AED" stroke-width="1.5" stroke-dasharray="5,3"/>
    <rect x="646" y="526" width="148" height="76" rx="8" fill="#F5F3FF" stroke="#7C3AED" stroke-width="1.5" stroke-dasharray="5,3"/>
    <rect x="847" y="526" width="148" height="76" rx="8" fill="#F5F3FF" stroke="#7C3AED" stroke-width="1.5" stroke-dasharray="5,3"/>
    <rect x="1047" y="526" width="148" height="76" rx="8" fill="#F5F3FF" stroke="#7C3AED" stroke-width="1.5" stroke-dasharray="5,3"/>
    <rect x="1248" y="526" width="148" height="76" rx="8" fill="#F5F3FF" stroke="#7C3AED" stroke-width="1.5" stroke-dasharray="5,3"/>
  </g>
  <g text-anchor="middle" fill="#6D28D9">
    <text x="118" y="552" font-size="12" font-weight="700">bank-service</text><text x="118" y="569" font-size="9" fill="#8B5CF6">:8086</text><text x="118" y="585" font-size="8.5" fill="#5B21B6">FBO ledger · custody</text>
    <text x="319" y="552" font-size="12" font-weight="700">inspection-service</text><text x="319" y="569" font-size="9" fill="#8B5CF6">:8087</text><text x="319" y="585" font-size="8.5" fill="#5B21B6">INSPECTOR 3-tier · evidence</text>
    <text x="519" y="552" font-size="12" font-weight="700">reputation-service</text><text x="519" y="569" font-size="9" fill="#8B5CF6">:8088</text><text x="519" y="585" font-size="8.5" fill="#5B21B6">read model (CQRS)</text>
    <text x="720" y="552" font-size="12" font-weight="700">file-service</text><text x="720" y="569" font-size="9" fill="#8B5CF6">:8089</text><text x="720" y="585" font-size="8.5" fill="#5B21B6">MinIO storage</text>
    <text x="921" y="552" font-size="12" font-weight="700">pricing-service</text><text x="921" y="569" font-size="9" fill="#8B5CF6">:8091</text><text x="921" y="585" font-size="8.5" fill="#5B21B6">price feeds · Redis</text>
    <text x="1121" y="552" font-size="12" font-weight="700">audit-service</text><text x="1121" y="569" font-size="9" fill="#8B5CF6">:8092</text><text x="1121" y="585" font-size="8.5" fill="#5B21B6">append-only · hash chain</text>
    <text x="1322" y="552" font-size="12" font-weight="700">analytics-service</text><text x="1322" y="569" font-size="9" fill="#8B5CF6">:8093</text><text x="1322" y="585" font-size="8.5" fill="#5B21B6">time-series agg.</text>
  </g>

  <text x="720" y="624" text-anchor="middle" font-size="10" font-style="italic" fill="#94A3B8">Every microservice owns an isolated MySQL schema (Flyway migrations) — no shared database.</text>

  <path d="M148,650 a62,9 0 0 0 124,0 v38 a62,9 0 0 1 -124,0 z" fill="#E2E8F0" stroke="#475569" stroke-width="1.3"/>
  <ellipse cx="210" cy="650" rx="62" ry="9" fill="#EDF1F6" stroke="#475569" stroke-width="1.3"/>
  <text x="210" y="670" text-anchor="middle" font-size="11.5" font-weight="700" fill="#334155">MySQL</text>
  <text x="210" y="685" text-anchor="middle" font-size="8.5" fill="#475569">DB per service ×5</text>

  <rect x="658" y="650" width="124" height="48" rx="6" fill="#E2E8F0" stroke="#475569" stroke-width="1.3"/>
  <text x="720" y="671" text-anchor="middle" font-size="11.5" font-weight="700" fill="#334155">MinIO</text>
  <text x="720" y="686" text-anchor="middle" font-size="8.5" fill="#475569">object storage · files</text>

  <path d="M859,650 a62,9 0 0 0 124,0 v38 a62,9 0 0 1 -124,0 z" fill="#E2E8F0" stroke="#475569" stroke-width="1.3"/>
  <ellipse cx="921" cy="650" rx="62" ry="9" fill="#EDF1F6" stroke="#475569" stroke-width="1.3"/>
  <text x="921" y="670" text-anchor="middle" font-size="11.5" font-weight="700" fill="#334155">Redis</text>
  <text x="921" y="685" text-anchor="middle" font-size="8" fill="#475569">cache · rate-limit · token</text>

  <line x1="720" y1="602" x2="720" y2="650" stroke="#64748B" stroke-width="1.3" marker-start="url(#arrowGrayS)" marker-end="url(#arrowGray)"/>
  <line x1="921" y1="602" x2="921" y2="648" stroke="#64748B" stroke-width="1.3" marker-start="url(#arrowGrayS)" marker-end="url(#arrowGray)"/>

  <rect x="40" y="726" width="1360" height="104" rx="10" fill="#F0FDFA" stroke="#99F6E4" stroke-width="1.3" stroke-dasharray="6,4"/>
  <text x="52" y="744" font-size="11" font-weight="700" fill="#0F766E">External Systems &amp; Verification Sources — outside trust boundary</text>

  <rect x="48" y="754" width="140" height="66" rx="8" fill="#ECFEFF" stroke="#0891B2" stroke-width="1.4" stroke-dasharray="5,3"/>
  <text x="118" y="778" text-anchor="middle" font-size="11" font-weight="700" fill="#0E7490">Agribank / BIDV</text>
  <text x="118" y="794" text-anchor="middle" font-size="8.5" fill="#0891B2">real fund custody</text>
  <text x="118" y="807" text-anchor="middle" font-size="8" fill="#0891B2">(Phase 2 · mock now)</text>

  <rect x="214" y="754" width="152" height="66" rx="8" fill="#ECFEFF" stroke="#0891B2" stroke-width="1.4" stroke-dasharray="5,3"/>
  <text x="290" y="776" text-anchor="middle" font-size="10" font-weight="700" fill="#0E7490">SendGrid Inbound Parse</text>
  <text x="290" y="792" text-anchor="middle" font-size="8.5" fill="#0891B2">Level-2 report intake</text>
  <text x="290" y="805" text-anchor="middle" font-size="8" fill="#0891B2">webhook · SPF/DKIM check</text>

  <rect x="396" y="754" width="152" height="66" rx="8" fill="#ECFEFF" stroke="#0891B2" stroke-width="1.4" stroke-dasharray="5,3"/>
  <text x="472" y="776" text-anchor="middle" font-size="10.5" font-weight="700" fill="#0E7490">BoA-VIAS / ILAC</text>
  <text x="472" y="792" text-anchor="middle" font-size="8.5" fill="#0891B2">inspector accreditation</text>
  <text x="472" y="805" text-anchor="middle" font-size="8" fill="#0891B2">Admin manual · API deferred</text>

  <rect x="628" y="754" width="184" height="66" rx="8" fill="#FFFBEB" stroke="#D97706" stroke-width="1.4" stroke-dasharray="5,3"/>
  <text x="720" y="774" text-anchor="middle" font-size="10" font-weight="700" fill="#B45309">Sentinel Hub / Copernicus</text>
  <text x="720" y="789" text-anchor="middle" font-size="8.5" fill="#D97706">Sentinel-2 NDVI geo-risk</text>
  <text x="720" y="801" text-anchor="middle" font-size="8" font-weight="700" fill="#C2410C">screening proxy — NOT legal EUDR</text>
  <text x="720" y="813" text-anchor="middle" font-size="8" fill="#D97706">design not finalized (06/07)</text>

  <rect x="1030" y="754" width="180" height="66" rx="8" fill="#ECFEFF" stroke="#0891B2" stroke-width="1.4" stroke-dasharray="5,3"/>
  <text x="1120" y="778" text-anchor="middle" font-size="11" font-weight="700" fill="#0E7490">VNSAT</text>
  <text x="1120" y="794" text-anchor="middle" font-size="8.5" fill="#0891B2">thitruongnongsan.gov.vn</text>
  <text x="1120" y="807" text-anchor="middle" font-size="8" fill="#0891B2">price scrape (Jsoup GET&#8594;POST)</text>

  <rect x="1224" y="754" width="168" height="66" rx="8" fill="#ECFEFF" stroke="#0891B2" stroke-width="1.4" stroke-dasharray="5,3"/>
  <text x="1308" y="778" text-anchor="middle" font-size="10.5" font-weight="700" fill="#0E7490">OpenTimestamps</text>
  <text x="1308" y="794" text-anchor="middle" font-size="8.5" fill="#0891B2">&#8594; Bitcoin hash anchor</text>
  <text x="1308" y="807" text-anchor="middle" font-size="8" fill="#0891B2">tamper-proof audit proof</text>

  <line x1="118" y1="602" x2="118" y2="754" stroke="#0891B2" stroke-width="1.3" stroke-dasharray="5,3" marker-start="url(#arrowCyanS)" marker-end="url(#arrowCyan)"/>
  <line x1="319" y1="602" x2="290" y2="754" stroke="#0891B2" stroke-width="1.3" stroke-dasharray="5,3" marker-end="url(#arrowCyan)"/>
  <line x1="347" y1="602" x2="466" y2="754" stroke="#0891B2" stroke-width="1.3" stroke-dasharray="5,3" marker-end="url(#arrowCyan)"/>
  <line x1="720" y1="368" x2="720" y2="754" stroke="#D97706" stroke-width="1.4" stroke-dasharray="6,4" marker-end="url(#arrowAmber)"/>
  <line x1="943" y1="602" x2="1110" y2="754" stroke="#0891B2" stroke-width="1.3" stroke-dasharray="5,3" marker-start="url(#arrowCyanS)" marker-end="url(#arrowCyan)"/>
  <line x1="1141" y1="602" x2="1290" y2="754" stroke="#0891B2" stroke-width="1.3" stroke-dasharray="5,3" marker-end="url(#arrowCyan)"/>

  <path d="M872,368 C 680,460 360,470 122,524" fill="none" stroke="#E11D48" stroke-width="2" stroke-dasharray="6,4" marker-end="url(#arrowRose)"/>
  <rect x="286" y="480" width="316" height="16" rx="3" fill="#FFFFFF" stroke="#E11D48" stroke-width="1"/>
  <text x="444" y="491" text-anchor="middle" font-size="8.5" fill="#E11D48">escrow &#8594; bank · only caller · awaits confirmation</text>

  <g font-size="10" fill="#475569">
    <rect x="44" y="856" width="18" height="13" rx="3" fill="#CCFBF1" stroke="#0D9488" stroke-width="1.3"/><text x="68" y="866">Phase 1 — built</text>
    <rect x="176" y="856" width="18" height="13" rx="3" fill="#F5F3FF" stroke="#7C3AED" stroke-width="1.3" stroke-dasharray="4,2"/><text x="200" y="866">Phase 2 — designed</text>
    <rect x="330" y="856" width="18" height="13" rx="3" fill="#ECFEFF" stroke="#0891B2" stroke-width="1.3" stroke-dasharray="4,2"/><text x="354" y="866">external integration</text>
    <rect x="486" y="856" width="18" height="13" rx="3" fill="#FFFBEB" stroke="#D97706" stroke-width="1.3" stroke-dasharray="4,2"/><text x="510" y="866">experimental / not finalized</text>
    <line x1="686" y1="862" x2="716" y2="862" stroke="#EA580C" stroke-width="1.5" stroke-dasharray="4,3"/><text x="722" y="866">async event (bus)</text>
    <line x1="858" y1="862" x2="888" y2="862" stroke="#E11D48" stroke-width="2" marker-end="url(#arrowRose)"/><text x="894" y="866">money path</text>
  </g>
  <text x="1396" y="866" text-anchor="end" font-size="9" fill="#94A3B8">github.com/RedAvocado22/AgriContract</text>
</svg>
